# xmcd CD database file
#
# Track frame offsets:
#	150
#	19606
#	34885
#	56961
#	70930
#	92789
#	115740
#	140327
#	158161
#	171644
#	188524
#	203744
#
# Disc length: 2871 seconds
#
# Revision: 3
# Processed by: cddbd v1.5.2PL0 Copyright (c) Steve Scherf et al.
# Submitted via: CDex 1.51
#
DISCID=a60b350c
DTITLE=Barneys Boogie Train - Hot rails
DYEAR=2007
DGENRE=Blues
TTITLE0=Call me Crazy Call me Mud
TTITLE1=Rock and Roll Hoochie Koo
TTITLE2=One Way Ticket
TTITLE3=Twenty Flight  Rock
TTITLE4=Cold kind of Woman
TTITLE5=Don't you Throw Your Life Away
TTITLE6=Paradiise City
TTITLE7=Try to Get You
TTITLE8=Shit from the Cat
TTITLE9=Folsom Prison Blues
TTITLE10=Wake up in the morning with the devil in my head
TTITLE11=Guns and Boots and Whisky Bottles
EXTD=YEAR: 2007
EXTT0=
EXTT1=
EXTT2=
EXTT3=
EXTT4=
EXTT5=
EXTT6=
EXTT7=
EXTT8=
EXTT9=
EXTT10=
EXTT11=
PLAYORDER=
